<svg width="91" height="91" viewBox="0 0 91 91" fill="none" xmlns="http://www.w3.org/2000/svg">
<g clip-path="url(#clip0)">
<path d="M89.667 79.3265H63.2484C68.4104 76.1488 71.8595 70.446 71.8595 63.9517V63.0415H72.8267C77.102 63.0415 80.5803 59.5632 80.5803 55.2879V53.062C80.5803 49.9225 78.0261 47.369 74.8873 47.369C73.775 47.369 72.7371 47.6904 71.8595 48.2438V46.2658C71.8595 44.3662 70.7674 42.6708 69.0595 41.8787C69.0408 41.8641 69.0227 41.8481 69.0033 41.8342L48.0174 26.4428L44.0913 22.7493C43.79 22.466 43.4686 22.205 43.1325 21.9634C43.7844 21.5614 44.3572 21.0157 44.8023 20.3457L46.7171 17.4645C47.3086 16.5723 47.621 15.5386 47.621 14.4742C47.621 12.658 46.7185 10.9723 45.2063 9.96562C42.7215 8.31672 39.3577 8.99503 37.7075 11.4778L35.7933 14.3576C35.1296 15.3567 34.8373 16.5119 34.8991 17.6464C34.2757 17.5804 33.639 17.6374 33.0301 17.8227C31.8263 18.1907 30.8112 19.0342 30.2294 20.1479L29.8698 20.6602C29.4463 21.2622 29.5914 22.0939 30.194 22.5174C30.796 22.9409 31.6277 22.7958 32.0512 22.1932L32.4657 21.6038C32.5053 21.5475 32.5407 21.4878 32.5705 21.426C32.8232 20.9136 33.2627 20.5401 33.8084 20.3735C34.3541 20.2069 34.9276 20.2714 35.4226 20.5554L36.5765 21.217C36.5834 21.2212 36.5904 21.2247 36.5966 21.2288L41.0025 23.7553C41.4579 24.0171 41.8821 24.3316 42.2647 24.6919L45.591 27.8203L43.9934 31.8637L39.3904 29.4039L37.6436 28.3188C37.0173 27.93 36.196 28.1223 35.8072 28.7471C35.4191 29.3727 35.6107 30.1947 36.2363 30.5835L36.9868 31.0494L32.5115 39.9548L22.6549 35.5615L28.5868 27.1225C29.0103 26.5199 28.8652 25.6889 28.2625 25.2654C27.6606 24.8419 26.8289 24.987 26.4054 25.5889L19.5424 35.3532C19.5362 35.3629 19.5306 35.3726 19.5244 35.3823C19.5077 35.4073 19.4911 35.433 19.4765 35.4594C19.4661 35.4768 19.4571 35.4941 19.4487 35.5122C19.4411 35.526 19.4334 35.5385 19.4265 35.5531L18.6281 37.2527C17.4568 39.7445 17.4305 42.6153 18.5545 45.1293C19.0641 46.2686 19.7875 47.2794 20.6706 48.1188C20.4776 48.611 20.495 49.172 20.7435 49.6643L23.2527 54.6006L13.9896 73.6056C13.1031 75.4239 13.2134 77.5345 14.2861 79.2508C14.3021 79.2765 14.3201 79.3008 14.3368 79.3265H1.33301C0.597076 79.3265 0 79.9228 0 80.6595C0 81.3954 0.597076 81.9925 1.33301 81.9925H89.667C90.4029 81.9925 91 81.3954 91 80.6595C91 79.9228 90.4029 79.3265 89.667 79.3265ZM71.8602 53.062C71.8602 51.393 73.2175 50.035 74.8866 50.035C76.5556 50.035 77.9136 51.393 77.9136 53.062V55.2879C77.9136 58.0928 75.6315 60.3748 72.8267 60.3748H71.8602V53.062ZM38.0143 15.8336L39.9277 12.9531C40.4561 12.1595 41.3288 11.7298 42.2175 11.7298C42.7382 11.7298 43.2644 11.8777 43.7296 12.1859C44.4968 12.6962 44.9543 13.5516 44.9543 14.4742C44.9543 15.0123 44.7953 15.5372 44.4954 15.9892L42.5813 18.8697C41.9932 19.7549 40.9685 20.2117 39.9298 20.0673L38.1344 19.037C37.4131 18.1136 37.3562 16.8237 38.0143 15.8336ZM44.1989 77.311H48.3562L50.4793 79.3258H44.1989V77.311ZM67.7467 46.0735C68.25 46.0464 68.7103 45.8673 69.0804 45.5736C69.1533 45.793 69.1935 46.0256 69.1935 46.2658V63.9517C69.1935 72.2546 62.5778 79.0397 54.3423 79.316L50.1509 75.3379L49.2262 68.0813H50.144C54.9873 68.0813 59.2765 65.6777 61.8911 62.0036V62.9263C61.8911 63.6622 62.4882 64.2593 63.2241 64.2593C63.9608 64.2593 64.5572 63.6622 64.5572 62.9263V53.6674C64.5572 53.6661 64.5572 53.6647 64.5572 53.664V46.2658C64.5572 46.1367 64.5696 46.0089 64.5919 45.8839C65.2021 46.0478 65.8325 46.1325 66.472 46.1325C66.6053 46.1325 66.7386 46.129 66.8726 46.1214L67.7467 46.0735ZM64.0712 42.7916C64.0531 42.7805 64.0351 42.7701 64.0163 42.7597L46.3567 33.1377L47.7675 29.5664L66.7108 43.4595C65.7805 43.506 64.8682 43.2762 64.0712 42.7916ZM21.0407 38.3865L21.2837 37.8706L22.7875 38.5427L32.5795 42.9041L32.5886 42.9083L43.815 47.9084C43.915 47.9536 43.9858 48.0487 43.9997 48.1577L45.3132 58.4649C45.4063 59.1953 46.0728 59.7125 46.8038 59.6188C47.5342 59.5257 48.0515 58.8578 47.9577 58.1275L46.6449 47.8203C46.5136 46.7934 45.8451 45.8943 44.8995 45.4729L34.9498 41.0414L39.3022 32.3796L44.0517 34.9186L62.1272 44.7668C61.9717 45.2459 61.8911 45.7499 61.8911 46.2658V53.6668C61.8911 60.1443 56.6216 65.4146 50.1447 65.4146H48.8867L48.6041 63.1985C48.5111 62.4681 47.8446 61.9515 47.1128 62.0439C46.3824 62.1369 45.8659 62.8048 45.9589 63.5352L46.3838 66.8698C46.3859 66.8892 46.3887 66.908 46.3908 66.9274L47.3745 74.6443H43.8469L37.0625 52.8218C36.7723 51.888 36.0412 51.1556 35.1081 50.8619L25.8381 47.9501C25.8319 47.948 25.8263 47.9466 25.8208 47.9445L25.2369 47.7703C23.3436 47.2038 21.7947 45.8444 20.9879 44.0406C20.1812 42.2362 20.2006 40.1756 21.0407 38.3865ZM31.8158 57.0541L32.8684 52.953L34.309 53.4064C34.4083 53.437 34.4853 53.5147 34.5166 53.614L38.3011 65.7867C38.0018 65.8791 37.7068 65.9894 37.4173 66.1179L28.9728 69.8892L31.8158 57.0541ZM24.4732 50.3245L25.048 50.4967L30.3211 52.1532L29.5962 54.9762L25.6944 53.5203L23.9893 50.1655C24.1483 50.2232 24.31 50.2759 24.4732 50.3245ZM16.3863 74.7741L25.4098 56.2606L28.9665 57.5873L25.7972 71.8984C25.6882 72.39 25.8652 72.9009 26.2561 73.2196C26.6463 73.5383 27.1829 73.6091 27.6426 73.4036L38.5017 68.5534C38.6954 68.4673 38.894 68.3979 39.0939 68.3361L41.5329 76.18V79.3258H19.2321C18.1331 79.3258 17.1292 78.769 16.5473 77.8372C15.9649 76.9062 15.9051 75.7614 16.3863 74.7741Z" fill="#2F80ED"/>
</g>
<defs>
<clipPath id="clip0">
<rect width="91" height="91" fill="white"/>
</clipPath>
</defs>
</svg>
